<?xml version="1.0" encoding="utf-8"?>
<!-- Generator: Adobe Illustrator 27.5.0, SVG Export Plug-In . SVG Version: 6.00 Build 0)  -->
<svg version="1.1" id="katman_1" xmlns="http://www.w3.org/2000/svg" xmlns:xlink="http://www.w3.org/1999/xlink" x="0px"
	y="0px" viewBox="0 0 1080 534.94" style="enable-background:new 0 0 1080 534.94;" xml:space="preserve">
	<style type="text/css">
		.st0 {
			fill: #333333;
		}

		.st1 {
			fill: #FCB900;
		}

		.st2 {
			fill: #FF9900;
		}

		.st3 {
			fill: #FFFFFF;
		}
	</style>
	<g>
		<g>
			<path class="st0" d="M589.85,221.67h-11.4v19.63h-20.89v-73.87h33.77c20.16,0,32.82,10.45,32.82,27.33
			c0,10.87-5.28,18.89-14.46,23.32l15.93,23.22h-22.37L589.85,221.67z M590.07,183.89h-11.61v21.63h11.61
			c8.65,0,12.98-4.01,12.98-10.76C603.05,187.9,598.72,183.89,590.07,183.89z" />
			<path class="st0"
				d="M694.08,225.15v16.15h-59.31v-73.87h57.93v16.15h-37.25v12.45h32.82v15.62h-32.82v13.51H694.08z" />
			<path class="st0" d="M733.86,214.49l-7.81,8.34v18.47h-20.68v-73.87h20.68v30.71l28.6-30.71h23.01l-30.18,32.71l31.76,41.16
			h-24.27L733.86,214.49z" />
			<path class="st0" d="M783.92,167.43h20.89v57.3h35.25v16.57h-56.14V167.43z" />
			<path class="st0" d="M900.34,226.94H869.1l-5.8,14.35h-21.32l32.61-73.87h20.58l32.71,73.87h-21.74L900.34,226.94z M894.22,211.54
			l-9.5-23.64l-9.5,23.64H894.22z" />
			<path class="st0" d="M999.44,241.3l-0.21-39.15l-18.99,31.87h-9.29l-18.89-30.81v38.1h-19.31v-73.87h17.2l25.96,42.63l25.33-42.63
			h17.2l0.21,73.87H999.44z" />
			<path class="st0" d="M607.06,353.58h-31.24l-5.8,14.35H548.7l32.61-73.87h20.58l32.71,73.87h-21.74L607.06,353.58z M600.94,338.18
			l-9.5-23.64l-9.5,23.64H600.94z" />
			<path class="st0" d="M633.46,358.54l11.4-13.51c3.9,5.07,8.02,7.7,12.77,7.7c6.02,0,9.29-3.69,9.29-10.76v-31.76h-25.54v-16.15
			h46.22v46.64c0,19.21-9.92,28.7-28.49,28.7C648.34,369.41,639.16,365.61,633.46,358.54z" />
			<path class="st0" d="M746.87,353.58h-31.24l-5.8,14.35h-21.32l32.61-73.87h20.58l32.71,73.87h-21.74L746.87,353.58z
			 M740.75,338.18l-9.5-23.64l-9.5,23.64H740.75z" />
			<path class="st0"
				d="M849.57,294.06v73.87h-17.2l-32.61-39.36v39.36h-20.47v-73.87h17.2l32.61,39.36v-39.36H849.57z" />
			<path class="st0" d="M859,361.29l6.86-15.41c6.54,4.33,15.83,7.28,24.38,7.28c8.65,0,12.03-2.43,12.03-6.02
			c0-11.71-42-3.17-42-30.6c0-13.19,10.76-23.95,32.71-23.95c9.6,0,19.52,2.22,26.8,6.44l-6.44,15.51c-7.07-3.8-14.03-5.7-20.47-5.7
			c-8.76,0-11.92,2.95-11.92,6.65c0,11.29,41.89,2.85,41.89,30.08c0,12.87-10.76,23.85-32.71,23.85
			C878,369.41,865.97,366.14,859,361.29z" />
			<path class="st0" d="M932.17,294.06h20.89v73.87h-20.89V294.06z" />
		</g>
		<path class="st1" d="M475.62,264.08c0-0.76,0-1.52,0-2.27c0-0.49,0-0.97,0-1.46c0-1.51,0-3.01,0-4.5c0-0.15,0-0.31,0-0.45
		c-0.06-191.71-3.31-210.42-165.86-212.24l-58.46,0.07l-58.46-0.07C30.28,44.96,27.05,63.67,26.98,255.39c0,0.15,0,0.31,0,0.45
		c0,1.49,0,2.99,0,4.5c0,0.49,0,0.97,0,1.46c0,0.75,0,1.51,0,2.27c0,0.92,0,1.84,0,2.76c0,0.14,0,0.28,0,0.43c0,0.07,0,0.14,0,0.2
		s0,0.14,0,0.2c0,0.14,0,0.28,0,0.43c0,0.92,0,1.84,0,2.76c0,0.76,0,1.52,0,2.27c0,0.49,0,0.97,0,1.46c0,1.51,0,3.01,0,4.5
		c0,0.15,0,0.31,0,0.45c0.06,191.71,3.31,210.42,165.86,212.24l58.46-0.07l58.46,0.07c162.55-1.81,165.79-20.53,165.86-212.24
		c0-0.15,0-0.31,0-0.45c0-1.49,0-2.99,0-4.5c0-0.49,0-0.97,0-1.46c0-0.75,0-1.51,0-2.27c0-0.92,0-1.84,0-2.76c0-0.14,0-0.28,0-0.43
		c0-0.07,0-0.14,0-0.2s0-0.14,0-0.2c0-0.14,0-0.28,0-0.43C475.62,265.92,475.62,265,475.62,264.08z" />
		<g>
			<path class="st2" d="M404.21,113.96l-32.87,11.31c0,0-9.77-9.75-10.87-10.66c-1.03-0.86-2.91-0.66-2.91-0.66l-33.87,20.88
			c0,0-16.94-16.87-19.2-19.13c-2.26-2.26-4.04-1.76-4.04-1.76l-32.24,6.9c0,0-4.88-4.91-5.86-5.86c-0.98-0.95-2.92-1.03-2.92-1.03
			l-69.03,11.64c0,0-8.05-8.07-9.9-9.87c-1.85-1.81-3.36-1.74-3.36-1.74l-31.1,15.62l-15.52-15.15c0,0-33.27,192.25-33.27,195
			c0,2.23,3.27,5.14,3.27,5.14l41.24,41.27v1.09l-13.54-13.95l-29.29,8.88c0,0-1.33,36.3-1.33,46.45c0,10.15,6.03,14.8,6.03,14.8
			l78.32,78.31l127.79,0.15c165.85-1.85,165.86-21.28,165.86-224.12c0-32.95,0-61.05-0.71-85.02c-7.2-7.2-66.81-66.79-67.91-67.78
			C405.83,113.61,404.21,113.96,404.21,113.96z" />
		</g>
		<g>
			<g>
				<g>
					<path class="st3"
						d="M121.77,364.51c0-4.48-0.11-7.93-0.23-9.76c-0.46-3.67-2.87-6.09-6.2-6.09c-2.99,0-5.05,1.84-5.86,5.05
					c-0.34,1.49-0.58,5.17-0.58,11.6v24.35c0,7.35,0.23,10.57,0.81,12.17c0.92,2.76,2.99,4.37,5.63,4.37c3.33,0,5.74-2.53,6.09-6.43
					c0.23-2.07,0.34-7.69,0.34-11.14h11.6v4.36c0,7.93-0.46,10.91-2.64,14.93c-2.87,5.63-8.5,8.96-15.27,8.96
					c-5.4,0-10.34-2.18-13.44-6.09c-3.79-4.59-4.59-8.38-4.59-20.33v-25.95c0-12.06,0.8-15.85,4.59-20.44
					c3.1-3.9,8.04-6.09,13.44-6.09c6.66,0,12.4,3.1,15.27,8.38c2.07,3.79,2.64,6.55,2.64,14.01v4.13H121.77L121.77,364.51z" />
					<path class="st3" d="M153.18,415.73H141.7v-76.6h16.08c13.32,0,19.18,6.89,19.18,22.17c0,9.87-2.07,15.16-7.7,19.29l8.84,35.14
					h-12.18l-7.23-32.04h-5.51L153.18,415.73L153.18,415.73L153.18,415.73z M156.85,373.01c3.9,0,5.4-0.57,6.66-2.41
					c1.15-1.84,1.95-5.28,1.95-9.19c0-4.13-0.8-7.81-2.3-9.54c-1.15-1.61-2.64-2.07-6.31-2.07h-3.67V373L156.85,373.01
					L156.85,373.01L156.85,373.01z" />
					<path class="st3"
						d="M217.35,349.81H197.6v20.9h14.24v10.68H197.6v23.66h19.75v10.68h-31.24v-76.6h31.24V349.81L217.35,349.81z" />
					<path class="st3" d="M238.6,398.85l-2.64,16.88h-11.37l12.52-76.6h14.93l13.32,76.6h-11.83l-2.64-16.88H238.6z M244.57,357.62
					l-4.36,30.55h8.96L244.57,357.62z" />
					<path class="st3" d="M288.9,415.73h-11.48v-65.92h-12.18v-10.68h36.06v10.68h-12.4V415.73z" />
					<path class="st3" d="M319.69,415.73h-11.49v-76.6h11.49V415.73z" />
					<path class="st3"
						d="M341.73,415.73l-14.7-76.6h11.71l8.84,49.04l7.81-49.04h11.37l-13.1,76.6H341.73z" />
					<path class="st3"
						d="M405.4,349.81h-19.75v20.9h14.24v10.68h-14.24v23.66h19.75v10.68h-31.24v-76.6h31.24V349.81L405.4,349.81z" />
				</g>
			</g>
			<g>
				<path class="st3" d="M176.73,113.95h-26.56c-2.56,0-4.63,2.07-4.63,4.63v73.62H133.1v-73.62c0-2.56-2.07-4.63-4.63-4.63h-26.56
				c-2.56,0-4.63,2.07-4.63,4.63v190.47c0,2.56,2.07,4.63,4.63,4.63h26.56c2.56,0,4.63-2.07,4.63-4.63v-82.76h12.45v82.76
				c0,2.56,2.07,4.63,4.63,4.63h26.56c2.56,0,4.63-2.07,4.63-4.63V118.57C181.35,116.02,179.28,113.95,176.73,113.95z" />
				<path class="st3" d="M261.39,279.57h-35.35v-53.29h21.64c2.56,0,4.63-2.07,4.63-4.63v-24.84c0-2.56-2.07-4.63-4.63-4.63h-21.64
				v-44.14h33.07c2.56,0,4.63-2.07,4.63-4.63v-24.84c0-2.56-2.07-4.63-4.63-4.63h-64.25c-2.56,0-4.63,2.07-4.63,4.63v190.47
				c0,2.56,2.07,4.63,4.63,4.63h66.54c2.56,0,4.63-2.07,4.63-4.63v-24.84C266.02,281.65,263.95,279.57,261.39,279.57z" />
				<path class="st3" d="M357.56,113.95h-27.99c-2.2,0-4.09,1.54-4.53,3.69l-10.03,48.39l-10.03-48.39
				c-0.45-2.15-2.34-3.69-4.53-3.69H271.6c-1.44,0-2.8,0.67-3.67,1.81c-0.88,1.14-1.17,2.62-0.8,4.01l29.54,110.79v78.5
				c0,2.56,2.07,4.63,4.63,4.63h26.56c2.56,0,4.63-2.07,4.63-4.63v-78.5l29.54-110.79c0.37-1.39,0.08-2.87-0.8-4.01
				C360.35,114.62,359,113.95,357.56,113.95z" />
				<path class="st3" d="M380.2,260.27h16.85c2.47,0,4.5-1.94,4.62-4.4l6.85-137.07c0.06-1.27-0.39-2.5-1.27-3.42
				c-0.87-0.92-2.09-1.44-3.35-1.44h-29.7c-1.26,0-2.47,0.52-3.34,1.43c-0.87,0.92-1.34,2.14-1.28,3.4l6,137.07
				C375.68,258.32,377.72,260.27,380.2,260.27z" />
				<circle class="st3" cx="388.91" cy="294.77" r="18.88" />
			</g>
		</g>
	</g>
</svg>