<?xml version="1.0" encoding="utf-8"?>
<!-- Generator: Adobe Illustrator 27.5.0, SVG Export Plug-In . SVG Version: 6.00 Build 0)  -->
<svg version="1.1" id="katman_1" xmlns="http://www.w3.org/2000/svg" xmlns:xlink="http://www.w3.org/1999/xlink" x="0px"
	y="0px" viewBox="0 0 1080 1080" style="enable-background:new 0 0 1080 1080;" xml:space="preserve">
	<style type="text/css">
		.st0 {
			fill: #FCB900;
		}

		.st1 {
			fill: #FF9900;
		}

		.st2 {
			fill: #FFFFFF;
		}
	</style>
	<path class="st0" d="M1069.3,532c0-1.79,0-3.58,0-5.36c0-1.16,0-2.3,0-3.45c0-3.56,0-7.1,0-10.62c0-0.36,0-0.72,0-1.07
	c-0.15-452.36-7.8-496.5-391.36-500.79L540,10.87L402.06,10.7C18.5,14.98,10.86,59.13,10.7,511.49c0,0.36,0,0.72,0,1.07
	c0,3.51,0,7.05,0,10.62c0,1.15,0,2.3,0,3.45c0,1.78,0,3.57,0,5.36c0,2.16,0,4.34,0,6.52c0,0.34,0,0.67,0,1.01c0,0.16,0,0.32,0,0.48
	s0,0.32,0,0.48c0,0.34,0,0.67,0,1.01c0,2.18,0,4.35,0,6.52c0,1.79,0,3.58,0,5.36c0,1.16,0,2.3,0,3.45c0,3.56,0,7.1,0,10.62
	c0,0.36,0,0.72,0,1.07c0.15,452.36,7.8,496.5,391.36,500.79l137.94-0.17l137.94,0.17c383.55-4.28,391.2-48.43,391.36-500.79
	c0-0.36,0-0.72,0-1.07c0-3.51,0-7.05,0-10.62c0-1.15,0-2.3,0-3.45c0-1.78,0-3.57,0-5.36c0-2.16,0-4.34,0-6.52c0-0.34,0-0.67,0-1.01
	c0-0.16,0-0.32,0-0.48s0-0.32,0-0.48c0-0.34,0-0.67,0-1.01C1069.3,536.33,1069.3,534.16,1069.3,532z" />
	<g>
		<path class="st1" d="M1069.3,540c0-77.76,0-144.09-1.68-200.68c-0.26-0.25-0.54-0.51-0.83-0.74c-0.51-0.67-1.12-1.26-1.78-1.78
		c-0.51-0.67-1.12-1.26-1.78-1.78c-0.51-0.67-1.12-1.26-1.78-1.78c-0.51-0.67-1.12-1.26-1.78-1.78c-0.51-0.67-1.12-1.26-1.78-1.78
		c-0.51-0.67-1.12-1.26-1.78-1.78c-0.51-0.67-1.12-1.26-1.78-1.78c-0.51-0.67-1.12-1.26-1.78-1.78c-0.51-0.67-1.12-1.26-1.78-1.78
		c-0.51-0.67-1.12-1.26-1.78-1.78c-0.51-0.67-1.12-1.26-1.78-1.78c-0.51-0.67-1.12-1.26-1.78-1.78c-0.51-0.67-1.12-1.26-1.78-1.78
		c-0.51-0.67-1.12-1.26-1.78-1.78c-0.51-0.67-1.12-1.26-1.78-1.78c-0.51-0.67-1.12-1.26-1.78-1.78c-0.51-0.67-1.12-1.26-1.78-1.78
		c-0.51-0.67-1.12-1.26-1.78-1.78c-0.51-0.67-1.12-1.26-1.78-1.78c-0.51-0.67-1.12-1.26-1.78-1.78c-0.51-0.67-1.12-1.26-1.78-1.78
		c-0.51-0.67-1.12-1.26-1.78-1.78c-0.51-0.67-1.12-1.26-1.78-1.78c-0.51-0.67-1.12-1.26-1.78-1.78c-0.51-0.67-1.12-1.26-1.78-1.78
		c-0.51-0.67-1.12-1.26-1.78-1.78c-0.51-0.67-1.12-1.26-1.78-1.78c-0.51-0.67-1.12-1.26-1.78-1.78c-0.51-0.67-1.12-1.26-1.78-1.78
		c-0.51-0.67-1.12-1.26-1.78-1.78c-0.51-0.67-1.12-1.26-1.78-1.78c-0.51-0.67-1.12-1.26-1.78-1.78c-0.51-0.67-1.12-1.26-1.78-1.78
		c-0.51-0.67-1.12-1.26-1.78-1.78c-0.51-0.67-1.12-1.26-1.78-1.78c-0.51-0.67-1.12-1.26-1.78-1.78c-0.51-0.67-1.12-1.26-1.78-1.78
		c-0.51-0.67-1.12-1.26-1.78-1.78c-0.51-0.67-1.12-1.26-1.78-1.78c-0.51-0.67-1.12-1.26-1.78-1.78c-0.51-0.67-1.12-1.26-1.78-1.78
		c-0.51-0.67-1.12-1.26-1.78-1.78c-0.51-0.67-1.12-1.26-1.78-1.78c-0.51-0.67-1.12-1.26-1.78-1.78c-0.51-0.67-1.12-1.26-1.78-1.78
		c-0.51-0.67-1.12-1.26-1.78-1.78c-0.51-0.67-1.12-1.26-1.78-1.78c-0.51-0.67-1.12-1.26-1.78-1.78c-0.51-0.67-1.12-1.26-1.78-1.78
		c-0.51-0.67-1.12-1.26-1.78-1.78c-0.51-0.67-1.12-1.26-1.78-1.78c-0.51-0.67-1.12-1.26-1.78-1.78c-0.51-0.67-1.12-1.26-1.78-1.78
		c-0.51-0.67-1.12-1.26-1.78-1.78c-0.51-0.67-1.12-1.26-1.78-1.78c-0.51-0.67-1.12-1.26-1.78-1.78c-0.51-0.67-1.12-1.26-1.78-1.78
		c-0.51-0.67-1.12-1.26-1.78-1.78c-0.51-0.67-1.12-1.26-1.78-1.78c-0.51-0.67-1.12-1.26-1.78-1.78c-0.51-0.67-1.12-1.26-1.78-1.78
		c-0.51-0.67-1.12-1.26-1.78-1.78c-0.51-0.67-1.12-1.26-1.78-1.78c-0.51-0.67-1.12-1.26-1.78-1.78c-0.51-0.67-1.12-1.26-1.78-1.78
		c-0.51-0.67-1.12-1.26-1.78-1.78c-0.51-0.67-1.12-1.26-1.78-1.78c-0.51-0.67-1.12-1.26-1.78-1.78c-0.51-0.67-1.12-1.26-1.78-1.78
		c-0.51-0.67-1.12-1.26-1.78-1.78c-0.51-0.67-1.12-1.26-1.78-1.78c-0.51-0.67-1.12-1.26-1.78-1.78c-0.51-0.67-1.12-1.26-1.78-1.78
		c-0.51-0.67-1.12-1.26-1.78-1.78c-0.51-0.67-1.12-1.26-1.78-1.78c-0.51-0.67-1.12-1.26-1.78-1.78c-0.51-0.67-1.12-1.26-1.78-1.78
		c-0.51-0.67-1.12-1.26-1.78-1.78c-0.51-0.67-1.12-1.26-1.78-1.78c-0.51-0.67-1.12-1.26-1.78-1.78c-0.51-0.67-1.12-1.26-1.78-1.78
		c-0.51-0.67-1.12-1.26-1.78-1.78c-0.51-0.67-1.12-1.26-1.78-1.78c-0.51-0.67-1.12-1.26-1.78-1.78c-0.51-0.67-1.12-1.26-1.78-1.78
		c-0.51-0.67-1.12-1.26-1.78-1.78c-0.51-0.67-1.12-1.26-1.78-1.78c-0.51-0.67-1.12-1.26-1.78-1.78c-2.05-2.63-5.26-4.19-8.6-4.18
		h-70.22c-6.06-0.13-11.33,5.37-10.93,11.42l0.57,13.05c-0.26-0.26-0.54-0.51-0.83-0.74c-0.53-0.67-1.13-1.26-1.78-1.78
		c-0.53-0.67-1.13-1.26-1.78-1.78c-0.53-0.67-1.13-1.26-1.78-1.78c-0.53-0.67-1.13-1.26-1.78-1.78c-0.53-0.67-1.13-1.26-1.78-1.78
		c-0.53-0.67-1.13-1.26-1.78-1.78c-0.53-0.67-1.13-1.26-1.78-1.78c-0.53-0.67-1.13-1.26-1.78-1.78c-0.53-0.67-1.13-1.26-1.78-1.78
		c-0.53-0.67-1.13-1.26-1.78-1.78c-0.53-0.67-1.13-1.26-1.78-1.78c-2.08-2.62-5.22-4.16-8.57-4.16h-66.17
		c-5.19,0-9.66,3.65-10.71,8.72l-7.71,37.19c-0.29-0.29-0.61-0.57-0.93-0.82c-0.53-0.66-1.12-1.25-1.78-1.78
		c-0.53-0.66-1.12-1.25-1.78-1.78c-0.53-0.66-1.12-1.25-1.78-1.78c-0.53-0.66-1.12-1.25-1.78-1.78c-0.53-0.66-1.12-1.25-1.78-1.78
		c-0.53-0.66-1.12-1.25-1.78-1.78c-0.53-0.66-1.12-1.25-1.78-1.78c-0.53-0.66-1.12-1.25-1.78-1.78c-0.53-0.66-1.12-1.25-1.78-1.78
		c-0.53-0.66-1.12-1.25-1.78-1.78c-0.53-0.66-1.12-1.25-1.78-1.78c-0.53-0.66-1.12-1.25-1.78-1.78c-0.53-0.66-1.12-1.25-1.78-1.78
		c-0.53-0.66-1.12-1.25-1.78-1.78c-0.53-0.66-1.12-1.25-1.78-1.78c-0.53-0.66-1.12-1.25-1.78-1.78c-0.53-0.66-1.12-1.25-1.78-1.78
		c-0.53-0.66-1.12-1.25-1.78-1.78c-0.53-0.66-1.12-1.25-1.78-1.78c-0.53-0.66-1.12-1.25-1.78-1.78c-0.53-0.66-1.12-1.25-1.78-1.78
		c-0.53-0.66-1.12-1.25-1.78-1.78c-0.53-0.66-1.12-1.25-1.78-1.78c-2.02-2.55-5.14-4.15-8.57-4.15h-68.19
		c-7.59-0.1-12.9,7.79-10.28,14.85c-0.01,0-0.01-0.01-0.02-0.01c-0.52-0.66-1.12-1.25-1.78-1.78c-0.52-0.66-1.12-1.25-1.78-1.78
		c-0.52-0.66-1.12-1.25-1.78-1.78c-0.52-0.66-1.12-1.25-1.78-1.78c-0.52-0.66-1.12-1.25-1.78-1.78c-0.52-0.66-1.12-1.25-1.78-1.78
		c-2.01-2.53-5.1-4.16-8.58-4.16H407.27c-6.05,0-10.95,4.9-10.95,10.95v16.51c-0.07-0.06-0.14-0.1-0.2-0.16
		c-0.52-0.66-1.12-1.25-1.78-1.78c-0.52-0.66-1.12-1.25-1.78-1.78c-0.52-0.66-1.12-1.25-1.78-1.78c-0.52-0.66-1.12-1.25-1.78-1.78
		c-0.52-0.66-1.12-1.25-1.78-1.78c-0.52-0.66-1.12-1.25-1.78-1.78c-0.52-0.66-1.12-1.25-1.78-1.78c-0.52-0.66-1.12-1.25-1.78-1.78
		c-0.52-0.66-1.12-1.25-1.78-1.78c-0.52-0.66-1.12-1.25-1.78-1.78c-0.52-0.66-1.12-1.25-1.78-1.78c-0.52-0.66-1.12-1.25-1.78-1.78
		c-0.52-0.66-1.12-1.25-1.78-1.78c-2.01-2.53-5.1-4.16-8.57-4.16h-62.79c-6.05,0-10.95,4.9-10.95,10.95v24.96
		c-0.46-0.54-0.98-1.04-1.54-1.48c-0.52-0.66-1.12-1.25-1.78-1.78c-0.52-0.66-1.12-1.25-1.78-1.78c-0.52-0.66-1.12-1.25-1.78-1.78
		c-0.52-0.66-1.12-1.25-1.78-1.78c-0.52-0.66-1.12-1.25-1.78-1.78c-0.52-0.66-1.12-1.25-1.78-1.78c-0.52-0.66-1.12-1.25-1.78-1.78
		c-0.52-0.66-1.12-1.25-1.78-1.78c-0.52-0.66-1.12-1.25-1.78-1.78c-0.52-0.66-1.12-1.25-1.78-1.78c-0.52-0.66-1.12-1.25-1.78-1.78
		c-0.52-0.66-1.12-1.25-1.78-1.78c-0.52-0.66-1.12-1.25-1.78-1.78c-0.52-0.66-1.12-1.25-1.78-1.78c-0.52-0.66-1.12-1.25-1.78-1.78
		c-0.52-0.66-1.12-1.25-1.78-1.78c-0.52-0.66-1.12-1.25-1.78-1.78c-2.01-2.53-5.1-4.16-8.57-4.16h-62.79
		c-6.05,0-10.95,4.9-10.95,10.95v450.35c0,3.48,1.63,6.57,4.16,8.57c0.52,0.66,1.12,1.25,1.78,1.78c0.52,0.66,1.12,1.25,1.78,1.78
		c0.52,0.66,1.12,1.25,1.78,1.78c0.52,0.66,1.12,1.25,1.78,1.78c0.52,0.66,1.12,1.25,1.78,1.78c0.52,0.66,1.12,1.25,1.78,1.78
		c0.52,0.66,1.12,1.25,1.78,1.78c0.52,0.66,1.12,1.25,1.78,1.78c0.52,0.66,1.12,1.25,1.78,1.78c0.52,0.66,1.12,1.25,1.78,1.78
		c0.52,0.66,1.12,1.25,1.78,1.78c0.52,0.66,1.12,1.25,1.78,1.78c0.52,0.66,1.12,1.25,1.78,1.78c0.52,0.66,1.12,1.25,1.78,1.78
		c0.52,0.66,1.12,1.25,1.78,1.78c0.52,0.66,1.12,1.25,1.78,1.78c0.52,0.66,1.12,1.25,1.78,1.78c0.52,0.66,1.12,1.25,1.78,1.78
		c0.52,0.66,1.12,1.25,1.78,1.78c0.52,0.66,1.12,1.25,1.78,1.78c0.52,0.66,1.12,1.25,1.78,1.78c0.52,0.66,1.12,1.25,1.78,1.78
		c0.52,0.66,1.12,1.25,1.78,1.78c0.52,0.66,1.12,1.25,1.78,1.78c0.52,0.66,1.12,1.25,1.78,1.78c0.52,0.66,1.12,1.25,1.78,1.78
		c0.52,0.66,1.12,1.25,1.78,1.78c0.52,0.66,1.12,1.25,1.78,1.78c0.52,0.66,1.12,1.25,1.78,1.78c0.52,0.66,1.12,1.25,1.78,1.78
		c0.52,0.66,1.12,1.25,1.78,1.78c0.52,0.66,1.12,1.25,1.78,1.78c0.52,0.66,1.12,1.25,1.78,1.78c0.52,0.66,1.12,1.25,1.78,1.78
		c0.52,0.66,1.12,1.25,1.78,1.78c0.52,0.66,1.12,1.25,1.78,1.78c0.52,0.66,1.12,1.25,1.78,1.78c0.52,0.66,1.12,1.25,1.78,1.78
		c0.52,0.66,1.12,1.25,1.78,1.78c0.52,0.66,1.12,1.25,1.78,1.78c0.52,0.66,1.12,1.25,1.78,1.78c0.52,0.66,1.12,1.25,1.78,1.78
		c0.52,0.66,1.12,1.25,1.78,1.78c0.52,0.66,1.12,1.25,1.78,1.78c0.52,0.66,1.12,1.25,1.78,1.78c0.52,0.66,1.12,1.25,1.78,1.78
		c0.52,0.66,1.12,1.25,1.78,1.78c0.52,0.66,1.12,1.25,1.78,1.78c0.52,0.66,1.12,1.25,1.78,1.78c0.52,0.66,1.12,1.25,1.78,1.78
		c0.52,0.66,1.12,1.25,1.78,1.78c0.52,0.66,1.12,1.25,1.78,1.78c0.52,0.66,1.12,1.25,1.78,1.78c0.52,0.66,1.12,1.25,1.78,1.78
		c0.52,0.66,1.12,1.25,1.78,1.78c0.52,0.66,1.12,1.25,1.78,1.78c0.36,0.45,0.75,0.87,1.19,1.26v2.57c-0.31-0.31-0.64-0.61-0.96-0.91
		c-0.57-0.62-1.17-1.21-1.78-1.78c-0.57-0.62-1.17-1.21-1.78-1.78c-0.57-0.62-1.17-1.21-1.78-1.78c-0.57-0.62-1.17-1.21-1.78-1.78
		c-0.57-0.62-1.17-1.21-1.78-1.78c-0.57-0.62-1.17-1.21-1.78-1.78c-0.57-0.62-1.17-1.21-1.78-1.78c-0.57-0.62-1.17-1.21-1.78-1.78
		c-0.57-0.62-1.17-1.21-1.78-1.78c-0.57-0.62-1.17-1.21-1.78-1.78c-0.57-0.62-1.17-1.21-1.78-1.78c-0.57-0.62-1.17-1.21-1.78-1.78
		c-0.57-0.62-1.17-1.21-1.78-1.78c-0.57-0.62-1.17-1.21-1.78-1.78c-0.57-0.62-1.17-1.21-1.78-1.78c-0.57-0.62-1.17-1.21-1.78-1.78
		c-0.57-0.62-1.17-1.21-1.78-1.78c-15.17-17.04-48.53-16.75-62.59,1.87c-8.96,10.86-10.86,19.82-10.86,48.33v61.37
		c0,28.24,1.9,37.2,10.86,48.06c1.18,1.48,2.47,2.83,3.85,4.1c0.44,0.46,0.89,0.91,1.35,1.34c0.57,0.62,1.17,1.21,1.78,1.78
		c0.57,0.62,1.17,1.21,1.78,1.78c0.57,0.62,1.17,1.21,1.78,1.78c0.57,0.62,1.17,1.21,1.78,1.78c0.57,0.62,1.17,1.21,1.78,1.78
		c0.57,0.62,1.17,1.21,1.78,1.78c0.57,0.62,1.17,1.21,1.78,1.78c0.57,0.62,1.17,1.21,1.78,1.78c0.57,0.62,1.17,1.21,1.78,1.78
		c0.57,0.62,1.17,1.21,1.78,1.78c0.57,0.62,1.17,1.21,1.78,1.78c0.57,0.62,1.17,1.21,1.78,1.78c0.57,0.62,1.17,1.21,1.78,1.78
		c0.57,0.62,1.17,1.21,1.78,1.78c0.57,0.62,1.17,1.21,1.78,1.78c0.57,0.62,1.17,1.21,1.78,1.78c0.57,0.62,1.17,1.21,1.78,1.78
		c0.57,0.62,1.17,1.21,1.78,1.78c0.57,0.62,1.17,1.21,1.78,1.78c0.57,0.62,1.17,1.21,1.78,1.78c0.57,0.62,1.17,1.21,1.78,1.78
		c0.57,0.62,1.17,1.21,1.78,1.78c0.57,0.62,1.17,1.21,1.78,1.78c0.57,0.62,1.17,1.21,1.78,1.78c0.57,0.62,1.17,1.21,1.78,1.78
		c0.57,0.62,1.17,1.21,1.78,1.78c0.57,0.62,1.17,1.21,1.78,1.78c0.57,0.62,1.17,1.21,1.78,1.78c0.57,0.62,1.17,1.21,1.78,1.78
		c0.57,0.62,1.17,1.21,1.78,1.78c0.57,0.62,1.17,1.21,1.78,1.78c0.57,0.62,1.17,1.21,1.78,1.78c0.57,0.62,1.17,1.21,1.78,1.78
		c0.57,0.62,1.17,1.21,1.78,1.78c0.57,0.62,1.17,1.21,1.78,1.78c0.57,0.62,1.17,1.21,1.78,1.78c0.57,0.62,1.17,1.21,1.78,1.78
		c0.57,0.62,1.17,1.21,1.78,1.78c0.57,0.62,1.17,1.21,1.78,1.78c0.57,0.62,1.17,1.21,1.78,1.78c0.57,0.62,1.17,1.21,1.78,1.78
		c0.57,0.62,1.17,1.21,1.78,1.78c0.57,0.62,1.17,1.21,1.78,1.78c0.57,0.62,1.17,1.21,1.78,1.78c0.57,0.62,1.17,1.21,1.78,1.78
		c0.57,0.62,1.17,1.21,1.78,1.78c0.57,0.62,1.17,1.21,1.78,1.78c0.57,0.62,1.17,1.21,1.78,1.78c0.57,0.62,1.17,1.21,1.78,1.78
		c0.57,0.62,1.17,1.21,1.78,1.78c0.57,0.62,1.17,1.21,1.78,1.78c0.57,0.62,1.17,1.21,1.78,1.78c0.57,0.62,1.17,1.21,1.78,1.78
		c0.57,0.62,1.17,1.21,1.78,1.78c0.57,0.62,1.17,1.21,1.78,1.78c0.57,0.62,1.17,1.21,1.78,1.78c0.57,0.62,1.17,1.21,1.78,1.78
		c0.57,0.62,1.17,1.21,1.78,1.78c0.57,0.62,1.17,1.21,1.78,1.78c0.57,0.62,1.17,1.21,1.78,1.78c0.57,0.62,1.17,1.21,1.78,1.78
		c0.57,0.62,1.17,1.21,1.78,1.78c0.57,0.62,1.17,1.21,1.78,1.78c0.57,0.62,1.17,1.21,1.78,1.78c0.57,0.62,1.17,1.21,1.78,1.78
		c0.57,0.62,1.17,1.21,1.78,1.78c0.57,0.62,1.17,1.21,1.78,1.78c0.57,0.62,1.17,1.21,1.78,1.78c0.57,0.62,1.17,1.21,1.78,1.78
		c0.57,0.62,1.17,1.21,1.78,1.78c0.57,0.62,1.17,1.21,1.78,1.78c0.57,0.62,1.17,1.21,1.78,1.78c0.57,0.62,1.17,1.21,1.78,1.78
		c0.57,0.62,1.17,1.21,1.78,1.78c0.57,0.62,1.17,1.21,1.78,1.78c0.57,0.62,1.17,1.21,1.78,1.78c0.57,0.62,1.17,1.21,1.78,1.78
		c0.57,0.62,1.17,1.21,1.78,1.78c0.57,0.62,1.17,1.21,1.78,1.78c0.57,0.62,1.17,1.21,1.78,1.78c0.57,0.62,1.17,1.21,1.78,1.78
		c0.57,0.62,1.17,1.21,1.78,1.78c0.57,0.62,1.17,1.21,1.78,1.78c0.57,0.62,1.17,1.21,1.78,1.78c0.57,0.62,1.17,1.21,1.78,1.78
		c0.57,0.62,1.17,1.21,1.78,1.78c0.57,0.62,1.17,1.21,1.78,1.78c0.57,0.62,1.17,1.21,1.78,1.78c0.57,0.62,1.17,1.21,1.78,1.78
		c0.57,0.62,1.17,1.21,1.78,1.78c0.57,0.62,1.17,1.21,1.78,1.78c0.57,0.62,1.17,1.21,1.78,1.78c0.57,0.62,1.17,1.21,1.78,1.78
		c0.57,0.62,1.17,1.21,1.78,1.78c0.57,0.62,1.17,1.21,1.78,1.78c0.57,0.62,1.17,1.21,1.78,1.78c0.57,0.62,1.17,1.21,1.78,1.78
		c0.57,0.62,1.17,1.21,1.78,1.78c0.57,0.62,1.17,1.21,1.78,1.78c0.57,0.62,1.17,1.21,1.78,1.78c0.57,0.62,1.17,1.21,1.78,1.78
		c0.57,0.62,1.17,1.21,1.78,1.78c0.57,0.62,1.17,1.21,1.78,1.78c0.03,0.03,0.05,0.05,0.08,0.08c47.54,0.89,101.78,0.89,163.15,0.89
		C1069.3,1069.3,1069.3,1069.3,1069.3,540z" />
	</g>
	<g>
		<path class="st1" d="M900.8,177.78l-77.56,26.69c0,0-23.05-23-25.64-25.16c-2.42-2.02-6.86-1.56-6.86-1.56l-79.92,49.27
		c0,0-39.96-39.8-45.3-45.14c-5.34-5.34-9.54-4.15-9.54-4.15l-76.07,16.27c0,0-11.52-11.59-13.83-13.83s-6.88-2.44-6.88-2.44
		L396.32,205.2c0,0-18.99-19.04-23.35-23.3c-4.36-4.26-7.92-4.11-7.92-4.11l-73.38,36.86l-36.61-35.74
		c0,0-78.51,453.62-78.51,460.11c0,5.27,7.71,12.13,7.71,12.13l97.31,97.39v2.57l-31.96-32.91l-69.1,20.95
		c0,0-3.13,85.66-3.13,109.61s14.22,34.91,14.22,34.91l184.79,184.77l301.53,0.36c391.34-4.37,391.36-50.21,391.36-528.82
		c0-77.74,0-144.05-1.68-200.62c-17-16.99-157.65-157.59-160.24-159.93C904.63,176.96,900.8,177.78,900.8,177.78z" />
	</g>
	<g>
		<g>
			<g>
				<path class="st2" d="M234.37,768.96c0-10.57-0.27-18.7-0.54-23.03c-1.09-8.67-6.77-14.36-14.63-14.36
				c-7.05,0-11.92,4.33-13.82,11.92c-0.81,3.52-1.36,12.19-1.36,27.37v57.45c0,17.34,0.55,24.93,1.9,28.72
				c2.17,6.51,7.05,10.3,13.28,10.3c7.86,0,13.55-5.96,14.37-15.17c0.54-4.88,0.81-18.15,0.81-26.29h27.37v10.29
				c0,18.7-1.09,25.75-6.23,35.23c-6.77,13.28-20.05,21.13-36.04,21.13c-12.73,0-24.39-5.15-31.71-14.36
				c-8.94-10.84-10.84-19.78-10.84-47.96v-61.24c0-28.45,1.89-37.39,10.84-48.23c7.32-9.21,18.97-14.36,31.71-14.36
				c15.72,0,29.27,7.32,36.04,19.78c4.88,8.94,6.23,15.45,6.23,33.06v9.75L234.37,768.96L234.37,768.96z" />
				<path class="st2"
					d="M308.49,889.83h-27.1V709.08h37.93c31.43,0,45.26,16.26,45.26,52.3c0,23.3-4.88,35.77-18.16,45.52
				l20.87,82.92h-28.73l-17.07-75.6h-13.01v75.6H308.49z M317.15,789.02c9.21,0,12.73-1.35,15.71-5.69
				c2.71-4.33,4.61-12.47,4.61-21.68c0-9.75-1.89-18.43-5.42-22.5c-2.71-3.79-6.22-4.88-14.9-4.88h-8.67V789h8.67V789.02z" />
				<path class="st2" d="M459.89,734.28h-46.61v49.32h33.6v25.2h-33.6v55.82h46.61v25.2h-73.71V709.08h73.71L459.89,734.28
				L459.89,734.28z" />
				<path class="st2" d="M510.03,849.99l-6.23,39.83h-26.83l29.53-180.75h35.23l31.43,180.75h-27.92l-6.22-39.83H510.03z
				 M524.11,752.71l-10.29,72.08h21.13L524.11,752.71z" />
				<path class="st2" d="M628.72,889.83h-27.09V734.28H572.9v-25.2h85.09v25.2h-29.27V889.83z" />
				<path class="st2" d="M701.37,889.83h-27.1V709.08h27.1V889.83z" />
				<path class="st2"
					d="M753.38,889.83l-34.69-180.75h27.64l20.87,115.71l18.43-115.71h26.83l-30.9,180.75H753.38z" />
				<path class="st2"
					d="M903.61,734.28H857v49.32h33.6v25.2H857v55.82h46.61v25.2H829.9V709.08h73.71V734.28z" />
			</g>
		</g>
		<g>
			<path class="st2"
				d="M364.04,177.75h-62.66c-6.03,0-10.92,4.89-10.92,10.92v173.71h-29.37V188.67c0-6.03-4.89-10.92-10.92-10.92
			h-62.66c-6.03,0-10.92,4.89-10.92,10.92v449.43c0,6.03,4.89,10.92,10.92,10.92h62.66c6.03,0,10.92-4.89,10.92-10.92V442.83h29.37
			V638.1c0,6.03,4.89,10.92,10.92,10.92h62.66c6.03,0,10.92-4.89,10.92-10.92V188.67C374.96,182.64,370.07,177.75,364.04,177.75z" />
			<path class="st2"
				d="M563.81,568.56h-83.41V442.83h51.07c6.03,0,10.92-4.89,10.92-10.92V373.3c0-6.03-4.89-10.92-10.92-10.92
			h-51.07V258.22h78.02c6.03,0,10.92-4.89,10.92-10.92v-58.62c0-6.03-4.89-10.92-10.92-10.92H406.81c-6.03,0-10.92,4.89-10.92,10.92
			v449.43c0,6.03,4.89,10.92,10.92,10.92h157c6.03,0,10.92-4.89,10.92-10.92v-58.62C574.73,573.45,569.84,568.56,563.81,568.56z" />
			<path class="st2" d="M790.72,177.75h-66.04c-5.18,0-9.65,3.64-10.69,8.7l-23.67,114.17l-23.67-114.17
			c-1.05-5.07-5.52-8.7-10.69-8.7H587.9c-3.39,0-6.6,1.58-8.66,4.26c-2.07,2.7-2.76,6.18-1.89,9.47l69.71,261.41v185.22
			c0,6.03,4.89,10.92,10.92,10.92h62.66c6.03,0,10.92-4.89,10.92-10.92V452.89l69.7-261.41c0.87-3.27,0.18-6.77-1.89-9.47
			C797.32,179.33,794.12,177.75,790.72,177.75z" />
			<path class="st2" d="M844.14,523.02h39.76c5.82,0,10.62-4.57,10.91-10.38l16.17-323.43c0.15-2.99-0.93-5.9-3-8.08
			c-2.06-2.17-4.92-3.39-7.91-3.39H830c-2.98,0-5.83,1.22-7.89,3.37c-2.06,2.16-3.16,5.06-3.02,8.03l14.15,323.43
			C833.49,518.42,838.3,523.02,844.14,523.02z" />
			<circle class="st2" cx="864.7" cy="604.42" r="44.55" />
		</g>
	</g>
</svg>